<svg xmlns="http://www.w3.org/2000/svg" width="1920" height="1080"><path d="M-324,-290L-47,-253L719,-256Z" fill="#fee3df" stroke="#fee3df" stroke-width="1.51"/><path d="M-324,-290L719,-256L1135,-260Z" fill="#fed0d3" stroke="#fed0d3" stroke-width="1.51"/><path d="M-324,-290L1135,-260L1225,-262Z" fill="#ffc5d0" stroke="#ffc5d0" stroke-width="1.51"/><path d="M2151,-3L1990,103L2153,284Z" fill="#b16899" stroke="#b16899" stroke-width="1.51"/><path d="M2072,696L2142,798L2176,478Z" fill="#a42986" stroke="#a42986" stroke-width="1.51"/><path d="M-324,-290L1225,-262L2180,-280Z" fill="#fdadc6" stroke="#fdadc6" stroke-width="1.51"/><path d="M1225,-262L1587,-241L2180,-280Z" fill="#d88bb4" stroke="#d88bb4" stroke-width="1.51"/><path d="M1587,-241L1796,-217L2180,-280Z" fill="#c786b2" stroke="#c786b2" stroke-width="1.51"/><path d="M2056,-63L2151,-3L2180,-280Z" fill="#b077a7" stroke="#b077a7" stroke-width="1.51"/><path d="M2020,-179L2056,-63L2180,-280Z" fill="#b47baa" stroke="#b47baa" stroke-width="1.51"/><path d="M2119,897L2069,915L2205,1175Z" fill="#840077" stroke="#840077" stroke-width="1.51"/><path d="M2069,915L2026,1139L2205,1175Z" fill="#7d0076" stroke="#7d0076" stroke-width="1.51"/><path d="M2142,798L2119,897L2205,1175Z" fill="#870077" stroke="#870077" stroke-width="1.51"/><path d="M2176,478L2142,798L2205,1175Z" fill="#951380" stroke="#951380" stroke-width="1.51"/><path d="M2153,284L2176,478L2268,86Z" fill="#a95893" stroke="#a95893" stroke-width="1.51"/><path d="M2151,-3L2153,284L2268,86Z" fill="#aa6697" stroke="#aa6697" stroke-width="1.51"/><path d="M2180,-280L2151,-3L2268,86Z" fill="#ab73a3" stroke="#ab73a3" stroke-width="1.51"/><path d="M2176,478L2205,1175L2268,86Z" fill="#a33186" stroke="#a33186" stroke-width="1.51"/><path d="M1981,525L2072,696L2176,478Z" fill="#ae3589" stroke="#ae3589" stroke-width="1.51"/><path d="M2153,284L1986,379L2176,478Z" fill="#af4f91" stroke="#af4f91" stroke-width="1.51"/><path d="M1796,-217L2020,-179L2180,-280Z" fill="#bb80af" stroke="#bb80af" stroke-width="1.51"/><path d="M2026,1139L2153,1242L2205,1175Z" fill="#6d0073" stroke="#6d0073" stroke-width="1.51"/><path d="M1986,379L1981,525L2176,478Z" fill="#b2458e" stroke="#b2458e" stroke-width="1.51"/><path d="M2056,-63L1990,103L2151,-3Z" fill="#b471a0" stroke="#b471a0" stroke-width="1.51"/><path d="M2026,1139L2049,1326L2153,1242Z" fill="#6c0073" stroke="#6c0073" stroke-width="1.51"/><path d="M1990,103L1986,379L2153,284Z" fill="#b45e97" stroke="#b45e97" stroke-width="1.51"/><path d="M2069,915L2119,897L2142,798Z" fill="#940d7d" stroke="#940d7d" stroke-width="1.51"/><path d="M2072,696L2069,915L2142,798Z" fill="#9c1582" stroke="#9c1582" stroke-width="1.51"/><path d="M1870,1050L2026,1139L2069,915Z" fill="#8a0179" stroke="#8a0179" stroke-width="1.51"/><path d="M1417,1296L1245,1360L1798,1356Z" fill="#8c0b7b" stroke="#8c0b7b" stroke-width="1.51"/><path d="M1889,390L1986,379L1990,103Z" fill="#ba5c97" stroke="#ba5c97" stroke-width="1.51"/><path d="M1750,721L1738,906L2069,915Z" fill="#a91383" stroke="#a91383" stroke-width="1.51"/><path d="M1981,525L1757,613L2072,696Z" fill="#b5328b" stroke="#b5328b" stroke-width="1.51"/><path d="M1757,613L1750,721L2072,696Z" fill="#b72a8a" stroke="#b72a8a" stroke-width="1.51"/><path d="M1750,721L2069,915L2072,696Z" fill="#a81a86" stroke="#a81a86" stroke-width="1.51"/><path d="M2026,1139L1798,1356L2049,1326Z" fill="#700074" stroke="#700074" stroke-width="1.51"/><path d="M1738,906L1870,1050L2069,915Z" fill="#9a027c" stroke="#9a027c" stroke-width="1.51"/><path d="M1824,84L1990,103L2056,-63Z" fill="#bd72a1" stroke="#bd72a1" stroke-width="1.51"/><path d="M1789,-111L1824,84L2056,-63Z" fill="#c378a5" stroke="#c378a5" stroke-width="1.51"/><path d="M2020,-179L1789,-111L2056,-63Z" fill="#bd7cab" stroke="#bd7cab" stroke-width="1.51"/><path d="M1824,84L1889,390L1990,103Z" fill="#c0679a" stroke="#c0679a" stroke-width="1.51"/><path d="M-47,-253L445,-215L719,-256Z" fill="#fed6d4" stroke="#fed6d4" stroke-width="1.51"/><path d="M1889,390L1981,525L1986,379Z" fill="#b94b91" stroke="#b94b91" stroke-width="1.51"/><path d="M1870,1050L1798,1356L2026,1139Z" fill="#7f0178" stroke="#7f0178" stroke-width="1.51"/><path d="M1796,-217L1789,-111L2020,-179Z" fill="#c581ae" stroke="#c581ae" stroke-width="1.51"/><path d="M1584,1279L1417,1296L1798,1356Z" fill="#880178" stroke="#880178" stroke-width="1.51"/><path d="M1889,390L1757,613L1981,525Z" fill="#bf418f" stroke="#bf418f" stroke-width="1.51"/><path d="M1660,1106L1798,1356L1870,1050Z" fill="#8a0079" stroke="#8a0079" stroke-width="1.51"/><path d="M1549,410L1757,613L1889,390Z" fill="#ca4992" stroke="#ca4992" stroke-width="1.51"/><path d="M1655,189L1549,410L1889,390Z" fill="#cf5e98" stroke="#cf5e98" stroke-width="1.51"/><path d="M1824,84L1655,189L1889,390Z" fill="#c8679b" stroke="#c8679b" stroke-width="1.51"/><path d="M1738,906L1660,1106L1870,1050Z" fill="#9e017c" stroke="#9e017c" stroke-width="1.51"/><path d="M1549,410L1624,609L1757,613Z" fill="#d13f90" stroke="#d13f90" stroke-width="1.51"/><path d="M1660,1106L1584,1279L1798,1356Z" fill="#880078" stroke="#880078" stroke-width="1.51"/><path d="M1789,-111L1569,-51L1824,84Z" fill="#d07ca7" stroke="#d07ca7" stroke-width="1.51"/><path d="M1569,-51L1655,189L1824,84Z" fill="#d377a1" stroke="#d377a1" stroke-width="1.51"/><path d="M1603,941L1660,1106L1738,906Z" fill="#a9017d" stroke="#a9017d" stroke-width="1.51"/><path d="M1587,-241L1789,-111L1796,-217Z" fill="#d286b0" stroke="#d286b0" stroke-width="1.51"/><path d="M1587,-241L1569,-51L1789,-111Z" fill="#d785ae" stroke="#d785ae" stroke-width="1.51"/><path d="M1507,836L1603,941L1738,906Z" fill="#b60f82" stroke="#b60f82" stroke-width="1.51"/><path d="M1507,836L1738,906L1750,721Z" fill="#bb1886" stroke="#bb1886" stroke-width="1.51"/><path d="M1540,713L1507,836L1750,721Z" fill="#c7218b" stroke="#c7218b" stroke-width="1.51"/><path d="M1624,609L1750,721L1757,613Z" fill="#c5308c" stroke="#c5308c" stroke-width="1.51"/><path d="M1624,609L1540,713L1750,721Z" fill="#c92c8c" stroke="#c92c8c" stroke-width="1.51"/><path d="M1489,-137L1569,-51L1587,-241Z" fill="#df89b2" stroke="#df89b2" stroke-width="1.51"/><path d="M1452,175L1549,410L1655,189Z" fill="#db6a9e" stroke="#db6a9e" stroke-width="1.51"/><path d="M1569,-51L1515,-28L1655,189Z" fill="#db7da5" stroke="#db7da5" stroke-width="1.51"/><path d="M1515,-28L1452,175L1655,189Z" fill="#dd79a2" stroke="#dd79a2" stroke-width="1.51"/><path d="M1603,941L1415,1040L1660,1106Z" fill="#ab0880" stroke="#ab0880" stroke-width="1.51"/><path d="M1415,1040L1584,1279L1660,1106Z" fill="#9e087e" stroke="#9e087e" stroke-width="1.51"/><path d="M1452,175L1392,307L1549,410Z" fill="#e16ba0" stroke="#e16ba0" stroke-width="1.51"/><path d="M1415,1040L1417,1296L1584,1279Z" fill="#9c0f80" stroke="#9c0f80" stroke-width="1.51"/><path d="M1359,650L1540,713L1624,609Z" fill="#d33791" stroke="#d33791" stroke-width="1.51"/><path d="M1416,454L1359,650L1624,609Z" fill="#db4495" stroke="#db4495" stroke-width="1.51"/><path d="M1549,410L1416,454L1624,609Z" fill="#da4d96" stroke="#da4d96" stroke-width="1.51"/><path d="M1507,836L1415,1040L1603,941Z" fill="#b91384" stroke="#b91384" stroke-width="1.51"/><path d="M1225,-262L1489,-137L1587,-241Z" fill="#e893b9" stroke="#e893b9" stroke-width="1.51"/><path d="M1489,-137L1515,-28L1569,-51Z" fill="#e086af" stroke="#e086af" stroke-width="1.51"/><path d="M1392,307L1416,454L1549,410Z" fill="#e1609d" stroke="#e1609d" stroke-width="1.51"/><path d="M1415,1040L1293,1178L1417,1296Z" fill="#a61784" stroke="#a61784" stroke-width="1.51"/><path d="M1225,-262L1317,-116L1489,-137Z" fill="#ef95bb" stroke="#ef95bb" stroke-width="1.51"/><path d="M1359,650L1301,768L1507,836Z" fill="#d62f93" stroke="#d62f93" stroke-width="1.51"/><path d="M1359,650L1507,836L1540,713Z" fill="#d22d91" stroke="#d22d91" stroke-width="1.51"/><path d="M1288,961L1415,1040L1507,836Z" fill="#c01a88" stroke="#c01a88" stroke-width="1.51"/><path d="M1317,152L1452,175L1515,-28Z" fill="#e680a8" stroke="#e680a8" stroke-width="1.51"/><path d="M1317,-116L1317,152L1515,-28Z" fill="#ea88af" stroke="#ea88af" stroke-width="1.51"/><path d="M1489,-137L1317,-116L1515,-28Z" fill="#e68cb4" stroke="#e68cb4" stroke-width="1.51"/><path d="M1301,768L1288,961L1507,836Z" fill="#cd278e" stroke="#cd278e" stroke-width="1.51"/><path d="M1263,557L1359,650L1416,454Z" fill="#e54c9a" stroke="#e54c9a" stroke-width="1.51"/><path d="M1317,152L1392,307L1452,175Z" fill="#e777a6" stroke="#e777a6" stroke-width="1.51"/><path d="M1288,961L1293,1178L1415,1040Z" fill="#b71c87" stroke="#b71c87" stroke-width="1.51"/><path d="M1392,307L1274,345L1416,454Z" fill="#e767a2" stroke="#e767a2" stroke-width="1.51"/><path d="M1293,1178L1245,1360L1417,1296Z" fill="#9e1883" stroke="#9e1883" stroke-width="1.51"/><path d="M1274,345L1263,557L1416,454Z" fill="#e95d9f" stroke="#e95d9f" stroke-width="1.51"/><path d="M1138,-56L1317,152L1317,-116Z" fill="#f28fb4" stroke="#f28fb4" stroke-width="1.51"/><path d="M1317,152L1274,345L1392,307Z" fill="#eb74a6" stroke="#eb74a6" stroke-width="1.51"/><path d="M1263,557L1301,768L1359,650Z" fill="#e24099" stroke="#e24099" stroke-width="1.51"/><path d="M1288,961L1034,1155L1293,1178Z" fill="#b9288a" stroke="#b9288a" stroke-width="1.51"/><path d="M1263,557L1105,624L1301,768Z" fill="#e7499b" stroke="#e7499b" stroke-width="1.51"/><path d="M1040,813L1288,961L1301,768Z" fill="#d63493" stroke="#d63493" stroke-width="1.51"/><path d="M1138,-56L1052,239L1317,152Z" fill="#f48dae" stroke="#f48dae" stroke-width="1.51"/><path d="M1077,296L1274,345L1317,152Z" fill="#f07aa9" stroke="#f07aa9" stroke-width="1.51"/><path d="M1052,239L1077,296L1317,152Z" fill="#f383ab" stroke="#f383ab" stroke-width="1.51"/><path d="M1225,-262L1138,-56L1317,-116Z" fill="#f49abd" stroke="#f49abd" stroke-width="1.51"/><path d="M-47,-253L56,-225L445,-215Z" fill="#fedfdb" stroke="#fedfdb" stroke-width="1.51"/><path d="M1077,296L1263,557L1274,345Z" fill="#ef6ba4" stroke="#ef6ba4" stroke-width="1.51"/><path d="M993,990L1034,1155L1288,961Z" fill="#c5328c" stroke="#c5328c" stroke-width="1.51"/><path d="M1034,1155L1245,1360L1293,1178Z" fill="#a92687" stroke="#a92687" stroke-width="1.51"/><path d="M1105,624L1040,813L1301,768Z" fill="#e4449a" stroke="#e4449a" stroke-width="1.51"/><path d="M1135,-260L1138,-56L1225,-262Z" fill="#f7a0c0" stroke="#f7a0c0" stroke-width="1.51"/><path d="M978,1255L814,1365L1245,1360Z" fill="#a53287" stroke="#a53287" stroke-width="1.51"/><path d="M1077,296L1105,624L1263,557Z" fill="#f062a0" stroke="#f062a0" stroke-width="1.51"/><path d="M1040,813L993,990L1288,961Z" fill="#d23790" stroke="#d23790" stroke-width="1.51"/><path d="M1034,1155L978,1255L1245,1360Z" fill="#aa2e88" stroke="#aa2e88" stroke-width="1.51"/><path d="M458,1314L270,1366L814,1365Z" fill="#a75a93" stroke="#a75a93" stroke-width="1.51"/><path d="M908,47L890,115L1052,239Z" fill="#fb98b0" stroke="#fb98b0" stroke-width="1.51"/><path d="M814,403L843,521L1077,296Z" fill="#f97ea8" stroke="#f97ea8" stroke-width="1.51"/><path d="M1077,296L843,521L1105,624Z" fill="#f66da4" stroke="#f66da4" stroke-width="1.51"/><path d="M719,-256L914,-155L1135,-260Z" fill="#ffb1c6" stroke="#ffb1c6" stroke-width="1.51"/><path d="M908,47L1052,239L1138,-56Z" fill="#f997b2" stroke="#f997b2" stroke-width="1.51"/><path d="M1135,-260L914,-155L1138,-56Z" fill="#faa4c0" stroke="#faa4c0" stroke-width="1.51"/><path d="M914,-155L908,47L1138,-56Z" fill="#fca2bb" stroke="#fca2bb" stroke-width="1.51"/><path d="M851,740L1040,813L1105,624Z" fill="#ea519c" stroke="#ea519c" stroke-width="1.51"/><path d="M843,521L851,740L1105,624Z" fill="#f261a0" stroke="#f261a0" stroke-width="1.51"/><path d="M1052,239L814,403L1077,296Z" fill="#f884ab" stroke="#f884ab" stroke-width="1.51"/><path d="M798,941L993,990L1040,813Z" fill="#d84693" stroke="#d84693" stroke-width="1.51"/><path d="M890,115L814,403L1052,239Z" fill="#fa8fae" stroke="#fa8fae" stroke-width="1.51"/><path d="M993,990L788,1184L1034,1155Z" fill="#c13f8e" stroke="#c13f8e" stroke-width="1.51"/><path d="M851,740L798,941L1040,813Z" fill="#e2519a" stroke="#e2519a" stroke-width="1.51"/><path d="M788,1184L978,1255L1034,1155Z" fill="#b63d8d" stroke="#b63d8d" stroke-width="1.51"/><path d="M752,141L814,403L890,115Z" fill="#fa9ab2" stroke="#fa9ab2" stroke-width="1.51"/><path d="M798,941L788,1184L993,990Z" fill="#ca4992" stroke="#ca4992" stroke-width="1.51"/><path d="M788,1184L814,1365L978,1255Z" fill="#af428d" stroke="#af428d" stroke-width="1.51"/><path d="M600,1287L458,1314L814,1365Z" fill="#aa5492" stroke="#aa5492" stroke-width="1.51"/><path d="M608,-97L752,141L908,47Z" fill="#fcaebc" stroke="#fcaebc" stroke-width="1.51"/><path d="M608,-97L908,47L914,-155Z" fill="#fdb0c1" stroke="#fdb0c1" stroke-width="1.51"/><path d="M719,-256L608,-97L914,-155Z" fill="#febac9" stroke="#febac9" stroke-width="1.51"/><path d="M702,862L798,941L851,740Z" fill="#e15b9c" stroke="#e15b9c" stroke-width="1.51"/><path d="M843,521L704,732L851,740Z" fill="#f16aa3" stroke="#f16aa3" stroke-width="1.51"/><path d="M752,141L890,115L908,47Z" fill="#fba2b5" stroke="#fba2b5" stroke-width="1.51"/><path d="M724,1186L788,1184L798,941Z" fill="#c35093" stroke="#c35093" stroke-width="1.51"/><path d="M752,141L657,419L814,403Z" fill="#fa97b1" stroke="#fa97b1" stroke-width="1.51"/><path d="M788,1184L724,1186L814,1365Z" fill="#b24a90" stroke="#b24a90" stroke-width="1.51"/><path d="M638,471L704,732L843,521Z" fill="#f779a7" stroke="#f779a7" stroke-width="1.51"/><path d="M704,732L702,862L851,740Z" fill="#e963a1" stroke="#e963a1" stroke-width="1.51"/><path d="M657,419L638,471L814,403Z" fill="#fa8cad" stroke="#fa8cad" stroke-width="1.51"/><path d="M814,403L638,471L843,521Z" fill="#f983aa" stroke="#f983aa" stroke-width="1.51"/><path d="M608,-97L557,50L752,141Z" fill="#fcb6bf" stroke="#fcb6bf" stroke-width="1.51"/><path d="M514,1081L724,1186L798,941Z" fill="#c85897" stroke="#c85897" stroke-width="1.51"/><path d="M702,862L514,1081L798,941Z" fill="#d55d98" stroke="#d55d98" stroke-width="1.51"/><path d="M724,1186L600,1287L814,1365Z" fill="#ae4f91" stroke="#ae4f91" stroke-width="1.51"/><path d="M638,471L531,602L704,732Z" fill="#f67fa9" stroke="#f67fa9" stroke-width="1.51"/><path d="M535,849L514,1081L702,862Z" fill="#d9669c" stroke="#d9669c" stroke-width="1.51"/><path d="M557,50L435,169L752,141Z" fill="#fbb4bc" stroke="#fbb4bc" stroke-width="1.51"/><path d="M537,415L657,419L752,141Z" fill="#fa9eb4" stroke="#fa9eb4" stroke-width="1.51"/><path d="M435,169L537,415L752,141Z" fill="#fbaab8" stroke="#fbaab8" stroke-width="1.51"/><path d="M535,849L702,862L704,732Z" fill="#e66aa2" stroke="#e66aa2" stroke-width="1.51"/><path d="M514,1081L600,1287L724,1186Z" fill="#b95a96" stroke="#b95a96" stroke-width="1.51"/><path d="M445,-215L608,-97L719,-256Z" fill="#fdc6ce" stroke="#fdc6ce" stroke-width="1.51"/><path d="M531,602L535,849L704,732Z" fill="#ee75a7" stroke="#ee75a7" stroke-width="1.51"/><path d="M537,415L638,471L657,419Z" fill="#fa93b0" stroke="#fa93b0" stroke-width="1.51"/><path d="M531,602L432,647L535,849Z" fill="#f17daa" stroke="#f17daa" stroke-width="1.51"/><path d="M537,415L531,602L638,471Z" fill="#fa8eae" stroke="#fa8eae" stroke-width="1.51"/><path d="M514,1081L458,1314L600,1287Z" fill="#b55e96" stroke="#b55e96" stroke-width="1.51"/><path d="M445,-215L557,50L608,-97Z" fill="#fdc4c9" stroke="#fdc4c9" stroke-width="1.51"/><path d="M342,1083L458,1314L514,1081Z" fill="#bd669a" stroke="#bd669a" stroke-width="1.51"/><path d="M349,422L432,647L531,602Z" fill="#f98fad" stroke="#f98fad" stroke-width="1.51"/><path d="M337,925L514,1081L535,849Z" fill="#d76c9d" stroke="#d76c9d" stroke-width="1.51"/><path d="M432,647L355,808L535,849Z" fill="#ec7ba8" stroke="#ec7ba8" stroke-width="1.51"/><path d="M435,169L332,223L537,415Z" fill="#fbafba" stroke="#fbafba" stroke-width="1.51"/><path d="M332,223L349,422L537,415Z" fill="#fba9b7" stroke="#fba9b7" stroke-width="1.51"/><path d="M349,422L531,602L537,415Z" fill="#fa96b0" stroke="#fa96b0" stroke-width="1.51"/><path d="M271,31L435,169L557,50Z" fill="#fcc0c0" stroke="#fcc0c0" stroke-width="1.51"/><path d="M445,-215L289,-146L557,50Z" fill="#fdcbcc" stroke="#fdcbcc" stroke-width="1.51"/><path d="M289,-146L271,31L557,50Z" fill="#fdc9c7" stroke="#fdc9c7" stroke-width="1.51"/><path d="M56,-225L289,-146L445,-215Z" fill="#fdd9d5" stroke="#fdd9d5" stroke-width="1.51"/><path d="M337,925L342,1083L514,1081Z" fill="#cf6d9d" stroke="#cf6d9d" stroke-width="1.51"/><path d="M355,808L337,925L535,849Z" fill="#e276a3" stroke="#e276a3" stroke-width="1.51"/><path d="M349,422L292,512L432,647Z" fill="#fb97b0" stroke="#fb97b0" stroke-width="1.51"/><path d="M181,1266L270,1366L342,1083Z" fill="#b56c9c" stroke="#b56c9c" stroke-width="1.51"/><path d="M342,1083L270,1366L458,1314Z" fill="#b36799" stroke="#b36799" stroke-width="1.51"/><path d="M271,31L332,223L435,169Z" fill="#fcc0be" stroke="#fcc0be" stroke-width="1.51"/><path d="M176,676L355,808L432,647Z" fill="#f187ac" stroke="#f187ac" stroke-width="1.51"/><path d="M292,512L174,618L432,647Z" fill="#f894b0" stroke="#f894b0" stroke-width="1.51"/><path d="M174,618L176,676L432,647Z" fill="#f590b0" stroke="#f590b0" stroke-width="1.51"/><path d="M337,925L72,942L342,1083Z" fill="#d577a0" stroke="#d577a0" stroke-width="1.51"/><path d="M332,223L165,420L349,422Z" fill="#fbafba" stroke="#fbafba" stroke-width="1.51"/><path d="M72,942L337,925L355,808Z" fill="#e07ca5" stroke="#e07ca5" stroke-width="1.51"/><path d="M176,676L72,942L355,808Z" fill="#ea85ad" stroke="#ea85ad" stroke-width="1.51"/><path d="M165,420L292,512L349,422Z" fill="#fca5b5" stroke="#fca5b5" stroke-width="1.51"/><path d="M271,31L34,198L332,223Z" fill="#fcc5c2" stroke="#fcc5c2" stroke-width="1.51"/><path d="M30,1040L181,1266L342,1083Z" fill="#c374a2" stroke="#c374a2" stroke-width="1.51"/><path d="M72,942L30,1040L342,1083Z" fill="#d17aa4" stroke="#d17aa4" stroke-width="1.51"/><path d="M155,-28L271,31L289,-146Z" fill="#fdd1cd" stroke="#fdd1cd" stroke-width="1.51"/><path d="M34,198L165,420L332,223Z" fill="#fcbbc0" stroke="#fcbbc0" stroke-width="1.51"/><path d="M181,1266L-120,1305L270,1366Z" fill="#ad6fa0" stroke="#ad6fa0" stroke-width="1.51"/><path d="M155,-28L34,198L271,31Z" fill="#fdcec9" stroke="#fdcec9" stroke-width="1.51"/><path d="M165,420L174,618L292,512Z" fill="#fca0b5" stroke="#fca0b5" stroke-width="1.51"/><path d="M56,-225L155,-28L289,-146Z" fill="#fdd9d5" stroke="#fdd9d5" stroke-width="1.51"/><path d="M-14,150L34,198L155,-28Z" fill="#fdcfcb" stroke="#fdcfcb" stroke-width="1.51"/><path d="M34,198L-66,396L165,420Z" fill="#fcbbc5" stroke="#fcbbc5" stroke-width="1.51"/><path d="M165,420L-37,508L174,618Z" fill="#fda4ba" stroke="#fda4ba" stroke-width="1.51"/><path d="M-28,814L72,942L176,676Z" fill="#ea8ab1" stroke="#ea8ab1" stroke-width="1.51"/><path d="M30,1040L-117,1184L181,1266Z" fill="#bf79a7" stroke="#bf79a7" stroke-width="1.51"/><path d="M-117,1184L-120,1305L181,1266Z" fill="#b577a7" stroke="#b577a7" stroke-width="1.51"/><path d="M174,618L-37,508L176,676Z" fill="#f99bb7" stroke="#f99bb7" stroke-width="1.51"/><path d="M-37,508L-28,814L176,676Z" fill="#f698b8" stroke="#f698b8" stroke-width="1.51"/><path d="M-66,396L-37,508L165,420Z" fill="#fdb0c1" stroke="#fdb0c1" stroke-width="1.51"/><path d="M56,-225L-147,-4L155,-28Z" fill="#fdddd9" stroke="#fdddd9" stroke-width="1.51"/><path d="M-147,-4L-14,150L155,-28Z" fill="#fdd6d2" stroke="#fdd6d2" stroke-width="1.51"/><path d="M-37,508L-212,719L-28,814Z" fill="#f69cbd" stroke="#f69cbd" stroke-width="1.51"/><path d="M-47,-253L-147,-4L56,-225Z" fill="#fee3e0" stroke="#fee3e0" stroke-width="1.51"/><path d="M-28,814L30,1040L72,942Z" fill="#dd84ac" stroke="#dd84ac" stroke-width="1.51"/><path d="M-28,814L-169,837L30,1040Z" fill="#e189b1" stroke="#e189b1" stroke-width="1.51"/><path d="M-169,837L-240,928L30,1040Z" fill="#de89b2" stroke="#de89b2" stroke-width="1.51"/><path d="M-14,150L-66,396L34,198Z" fill="#fdc6ca" stroke="#fdc6ca" stroke-width="1.51"/><path d="M-240,928L-117,1184L30,1040Z" fill="#cf83ae" stroke="#cf83ae" stroke-width="1.51"/><path d="M-212,719L-169,837L-28,814Z" fill="#ee94ba" stroke="#ee94ba" stroke-width="1.51"/><path d="M-147,-4L-357,118L-14,150Z" fill="#fdd8d4" stroke="#fdd8d4" stroke-width="1.51"/><path d="M-295,397L-66,396L-14,150Z" fill="#fdc4cc" stroke="#fdc4cc" stroke-width="1.51"/><path d="M-357,118L-295,397L-14,150Z" fill="#fed0d1" stroke="#fed0d1" stroke-width="1.51"/><path d="M-324,-290L-147,-4L-47,-253Z" fill="#fee9e6" stroke="#fee9e6" stroke-width="1.51"/><path d="M-270,486L-212,719L-37,508Z" fill="#fca9c2" stroke="#fca9c2" stroke-width="1.51"/><path d="M-240,928L-315,1097L-117,1184Z" fill="#cd86b1" stroke="#cd86b1" stroke-width="1.51"/><path d="M-66,396L-270,486L-37,508Z" fill="#feb3c5" stroke="#feb3c5" stroke-width="1.51"/><path d="M-324,-290L-314,-24L-147,-4Z" fill="#fee8e4" stroke="#fee8e4" stroke-width="1.51"/><path d="M-295,397L-270,486L-66,396Z" fill="#febbca" stroke="#febbca" stroke-width="1.51"/><path d="M-226,1285L-120,1305L-117,1184Z" fill="#b57cab" stroke="#b57cab" stroke-width="1.51"/><path d="M-315,1097L-226,1285L-117,1184Z" fill="#bd81af" stroke="#bd81af" stroke-width="1.51"/><path d="M-314,-24L-357,118L-147,-4Z" fill="#fedfdc" stroke="#fedfdc" stroke-width="1.51"/><path d="M-212,719L-240,928L-169,837Z" fill="#ea94ba" stroke="#ea94ba" stroke-width="1.51"/><path d="M-270,486L-240,928L-212,719Z" fill="#f59ec1" stroke="#f59ec1" stroke-width="1.51"/><path d="M-270,486L-315,1097L-240,928Z" fill="#ea95bc" stroke="#ea95bc" stroke-width="1.51"/><path d="M-295,397L-315,1097L-270,486Z" fill="#f9a5c4" stroke="#f9a5c4" stroke-width="1.51"/><path d="M-357,118L-315,1097L-295,397Z" fill="#ffb2c8" stroke="#ffb2c8" stroke-width="1.51"/><path d="M-324,-290L-357,118L-314,-24Z" fill="#fee7e4" stroke="#fee7e4" stroke-width="1.51"/></svg>